/* XPM */
static const char * ocs_icon[] = {
"48 48 236 2",
"  	c None",
". 	c #6B6B6B",
"+ 	c #6A6A6B",
"@ 	c #6C6C6B",
"# 	c #6F6E6A",
"$ 	c #71706A",
"% 	c #72706A",
"& 	c #706F6A",
"* 	c #6E6D6A",
"= 	c #68696C",
"- 	c #64666C",
"; 	c #757369",
"> 	c #948A62",
", 	c #AD9D5D",
"' 	c #C0AC59",
") 	c #CEB656",
"! 	c #D6BC54",
"~ 	c #DABF53",
"{ 	c #D9BF53",
"] 	c #D3BA54",
"^ 	c #C7B157",
"/ 	c #B5A35B",
"( 	c #9B9060",
"_ 	c #797668",
": 	c #65666C",
"< 	c #696A6B",
"[ 	c #6A6B6B",
"} 	c #64656C",
"| 	c #898364",
"1 	c #D0B855",
"2 	c #F2D24D",
"3 	c #F8D74C",
"4 	c #FEDB4B",
"5 	c #FFDC4B",
"6 	c #FAD84C",
"7 	c #F4D34D",
"8 	c #CEB655",
"9 	c #7D7967",
"0 	c #65676C",
"a 	c #6D6D6B",
"b 	c #857E65",
"c 	c #FFDF4A",
"d 	c #FFDE4A",
"e 	c #B9A75A",
"f 	c #7C7867",
"g 	c #C4AF58",
"h 	c #FFE04A",
"i 	c #E2C651",
"j 	c #908763",
"k 	c #66676C",
"l 	c #68686C",
"m 	c #898264",
"n 	c #F0D04E",
"o 	c #F4D44D",
"p 	c #978D61",
"q 	c #998E60",
"r 	c #FFE049",
"s 	c #FFDB4B",
"t 	c #FBD94C",
"u 	c #FCD94B",
"v 	c #F6D54D",
"w 	c #837E66",
"x 	c #A3955F",
"y 	c #CCB456",
"z 	c #B2A15C",
"A 	c #A2955F",
"B 	c #9A8F61",
"C 	c #9B8F61",
"D 	c #A4975E",
"E 	c #BAA75A",
"F 	c #DDC252",
"G 	c #FFDD4A",
"H 	c #ECCD4F",
"I 	c #727069",
"J 	c #8C8464",
"K 	c #FDDA4B",
"L 	c #FDDA4C",
"M 	c #A99A5D",
"N 	c #787568",
"O 	c #8E8563",
"P 	c #F1D24E",
"Q 	c #D1B855",
"R 	c #64666D",
"S 	c #767369",
"T 	c #E1C551",
"U 	c #67686C",
"V 	c #6E6E6B",
"W 	c #DAC053",
"X 	c #6D6C6B",
"Y 	c #DCC152",
"Z 	c #FFDD4B",
"` 	c #CAB356",
" .	c #6D6D6A",
"..	c #E5C850",
"+.	c #C5B058",
"@.	c #69696B",
"#.	c #A5975F",
"$.	c #FCDA4B",
"%.	c #DCC153",
"&.	c #69696C",
"*.	c #7F7A67",
"=.	c #F3D24D",
"-.	c #777468",
";.	c #706E6A",
">.	c #8D8564",
",.	c #A0935F",
"'.	c #9F9360",
").	c #A4965F",
"!.	c #E6C950",
"~.	c #A7985E",
"{.	c #9E9260",
"].	c #847E66",
"^.	c #BEAA59",
"/.	c #FFE149",
"(.	c #968C62",
"_.	c #C6B057",
":.	c #A6975E",
"<.	c #7F7A66",
"[.	c #CAB456",
"}.	c #7B7768",
"|.	c #63656D",
"1.	c #737169",
"2.	c #DEC352",
"3.	c #F3D24E",
"4.	c #FFE249",
"5.	c #62656D",
"6.	c #C4B058",
"7.	c #6C6C6A",
"8.	c #FFE349",
"9.	c #62646D",
"0.	c #B3A25B",
"a.	c #827C66",
"b.	c #797568",
"c.	c #E9CB50",
"d.	c #AA9B5E",
"e.	c #8E8664",
"f.	c #6C6B6B",
"g.	c #AC9D5D",
"h.	c #F8D64C",
"i.	c #868065",
"j.	c #A5985E",
"k.	c #928962",
"l.	c #8B8364",
"m.	c #AB9C5D",
"n.	c #F9D74C",
"o.	c #888165",
"p.	c #8B8464",
"q.	c #747269",
"r.	c #A6985E",
"s.	c #8E8663",
"t.	c #6B6B6A",
"u.	c #6C6B6A",
"v.	c #6B6A6A",
"w.	c #6A696B",
"x.	c #857F66",
"y.	c #6D6C6A",
"z.	c #B5A45B",
"A.	c #757269",
"B.	c #7C7767",
"C.	c #A3965F",
"D.	c #A1955F",
"E.	c #A8995E",
"F.	c #A09360",
"G.	c #A1945F",
"H.	c #978D62",
"I.	c #C3AE58",
"J.	c #6F6E69",
"K.	c #847F65",
"L.	c #F5D44D",
"M.	c #E0C452",
"N.	c #D7BD54",
"O.	c #D9BE53",
"P.	c #F0D14E",
"Q.	c #B8A55A",
"R.	c #EFCF4E",
"S.	c #CCB556",
"T.	c #EACC4F",
"U.	c #757368",
"V.	c #C1AC58",
"W.	c #837D65",
"X.	c #E1C451",
"Y.	c #CBB456",
"Z.	c #918863",
"`.	c #767468",
" +	c #807A66",
".+	c #7E7A66",
"++	c #DEC252",
"@+	c #FCD94C",
"#+	c #AC9C5D",
"$+	c #7B7767",
"%+	c #7D7867",
"&+	c #958B62",
"*+	c #DEC452",
"=+	c #68686B",
"-+	c #D6BD54",
";+	c #E3C751",
">+	c #857F65",
",+	c #AF9F5C",
"'+	c #64656D",
")+	c #B6A45B",
"!+	c #B3A15C",
"~+	c #898265",
"{+	c #DBC153",
"]+	c #E3C651",
"^+	c #C5B057",
"/+	c #7A7768",
"(+	c #777469",
"_+	c #B6A45A",
":+	c #F2D24E",
"<+	c #F3D34E",
"[+	c #AA9B5D",
"}+	c #998E61",
"|+	c #B1A05C",
"1+	c #F7D54D",
"2+	c #F7D64D",
"3+	c #938963",
"4+	c #FDDB4B",
"5+	c #888065",
"6+	c #BDA959",
"7+	c #E8CB4F",
"8+	c #FBD94B",
"9+	c #BBA85A",
"0+	c #807B66",
"a+	c #DFC352",
"b+	c #D2B955",
"c+	c #9C9060",
"d+	c #E6C951",
"e+	c #F1D14E",
"f+	c #CFB755",
"g+	c #817B66",
"h+	c #8A8364",
"i+	c #D1B955",
"j+	c #E0C551",
"k+	c #D2BA54",
"l+	c #767469",
"m+	c #727169",
"        . . . . . . . . . . . . . . . . . . . . . . . . . . . . . . . . . . . . . . . .         ",
"    . . . . . . . . . . . . . . . . . . . . . . . . . . . . . . . . . . . . . . . . . . . .     ",
"  . . . . . . . . . . . . . . . . . . . . . . . . . . . . . . . . . . . . . . . . . . . . . .   ",
"  . . . . . . . . . . . . . . . . . . . . . . + + @ # $ % % & * + + . . . . . . . . . . . . .   ",
". . . . . . . . . . . . . . . . . . . . = - ; > , ' ) ! ~ { ] ^ / ( _ : < . . . . . . . . . . . ",
". . . . . . . . . . . . . . . . . . [ } | 1 2 3 4 5 5 5 5 5 5 5 5 6 7 8 9 0 . . . . . . . . . . ",
". . . . . . . . . . . . . . . . + a b { c 5 4 4 4 4 4 4 4 4 4 4 4 4 4 5 d e ; + . . . . . . . . ",
". . . . . . . . . . . . . . . = f g 5 d 4 4 4 4 4 4 4 4 4 4 4 4 4 4 4 4 4 h i j k . . . . . . . ",
". . . . . . . . . . . . . . l m n 5 4 4 4 4 4 4 4 4 4 4 4 4 4 4 4 4 4 4 4 4 5 o p + . . . . . . ",
". . . . . . . . . . . . . + q r s 4 4 4 4 4 4 4 5 5 t 6 6 u 5 5 4 4 4 4 4 4 4 s v w + . . . . . ",
". . . . . . . . . . . . + x 4 4 4 4 4 4 4 s h n y z A B C D E F d 5 4 4 4 4 4 4 G H I + . . . . ",
". . . . . . . . . . . < J K 4 4 4 4 4 4 5 L M N # + + + + + . $ O P G 4 4 4 4 4 4 G Q R . . . . ",
". . . . . . . . . . < S u 5 4 4 4 4 4 s T S U . . . . . . . . . + V W 4 4 4 4 4 4 4 3 j + . . . ",
". . . . . . . . . . X Y Z 4 4 4 4 4 5 `  .< . . . . . . . . . . . + ; ..5 4 4 4 4 4 5 +.a . . . ",
". . . . . + @.@.@.= #.$.4 4 4 4 4 5 %.. = @.@.@.@.@.@.@.[ . . . . . &.*.c 4 4 4 4 4 4 =.-.. . . ",
". . . . ;.>.,.'.'.).!.5 4 4 4 4 4 c ~.{.'.'.'.'.'.'.'.{.].@ . . . . . k ^.c 4 4 4 4 4 /.(.< . . ",
". . . ;._.h h h h h 5 4 4 4 4 4 4 4 h r h h h h h h h /.G :.= . . . . . <.K 4 4 4 4 4 d [.k . . ",
". . . }.Z 4 4 4 4 4 4 4 4 4 4 4 4 4 4 4 4 4 4 4 4 4 4 4 5 t |.. . . . . 1.2.5 4 4 4 4 5 3.|.. . ",
". . . 9 4.4 4 4 4 4 4 4 4 4 4 4 4 4 4 4 4 4 4 4 4 4 4 4 4 4.5.. . . . . a 6.5 4 4 4 4 4 4.7.[ . ",
". . . 9 8.4 4 4 4 4 4 4 4 4 4 4 4 4 4 4 4 4 4 4 4 4 4 4 4 8.9.. . . . . + 0.5 4 4 4 4 4 h a.@.. ",
". . . b.v 4 4 4 4 4 4 4 4 4 4 4 4 4 4 4 4 4 4 4 4 4 4 4 G c.- . . . . . + d.K 4 4 4 4 4 c e.= . ",
". . . f.g.3.v h.4 4 4 4 4 4 4 6 v v v v v v v v v v v v n i.+ . . . . . + j.$.4 4 4 4 4 c k.= . ",
". . . . U *.l.m.n.4 4 4 4 4 d e o.p.p.p.p.p.p.p.p.p.p.l.q.@.. . . . . . + r.$.4 4 4 4 4 c s.= . ",
"t.t.u.u.u.v.w.,.t 4 4 4 4 4 c j U + + + + + + + + + + + . . . . . . . . < m.4 4 4 4 4 4 h x.@.. ",
"u.y. . .7.u.+ m.4 4 4 4 4 4 h *.= + + + + + + + + + + . . . . . . . . . + z.5 4 4 4 4 4 /.A.+ . ",
" .#  .B.'.C.D.8 s 4 4 4 4 4 c E.'.F.F.F.F.F.F.F.F.G.H.# < . . . . . . . X I.5 4 4 4 4 s 5 R . . ",
"# J.K.L.6 t t $.4 4 4 4 4 4 4 t t t t t t t t t t t n.M.1.. . . . . . . $ N.5 4 4 4 4 G M.: . . ",
";.7.O.5 4 4 4 4 4 4 4 4 4 4 4 4 4 4 4 4 4 4 4 4 4 4 4 K ~.+ . . . . . . -.P.4 4 4 4 4 c Q.U . . ",
"& t.R.4 4 4 4 4 4 4 4 4 4 4 4 4 4 4 4 4 4 4 4 4 4 4 4 5 z.< . . . . . + >.r 4 4 4 4 4 h m + . . ",
";.. R.4 4 4 4 4 4 4 4 4 4 4 4 4 4 4 4 4 4 4 4 4 4 4 4 5 z.< . . . . . 0 S.d 4 4 4 4 s T.S . . . ",
"# t.] G 4 4 4 4 4 4 4 4 4 4 4 4 4 4 4 4 4 4 4 4 4 4 4 K ).+ . . . . + U.c 4 4 4 4 4 5 V.X . . . ",
"* * W.X.c 4.4.4.G 4 4 4 4 4 4 4 c 4.4.4.4.4.4.4.4.8.5 Y.1.. . . . . k 8 Z 4 4 4 4 4 n.Z.+ . . . ",
"u. .y.`.<. +.+-.++5 4 4 4 4 4 @+#+$+%+%+%+%+%+%+%+9 }.& + . . . . + &+n.4 4 4 4 4 5 *+U . . . . ",
"t.u.7.y.7.7.7.=+,.c 4 4 4 4 4 5 -+$ . . . . . . . . . . . . . . + b.;+5 4 4 4 4 4 G >+@.. . . . ",
". t.t.t.u.t.t.. + L.5 4 4 4 4 4 d ,+'+. . . . . . . . . . . . U _ ~ c 4 4 4 4 4 h )+: . . . . . ",
". . . . . . . . = x /.4 4 4 4 4 4 4 !+'+. . . . . . . . . . U ~+H 5 4 4 4 4 4 5 {+1.. . . . . . ",
". . . . . . . . . 1.]+5 4 4 4 4 4 4 5 ^+/+* < + + + + + # (+_+5 s 4 4 4 4 4 5 :+o.+ . . . . . . ",
". . . . . . . . . + (.$.4 4 4 4 4 4 4 h <+^ [+}+k.> {.|+) 1+h 4 4 4 4 4 4 G 2+3+0 . . . . . . . ",
". . . . . . . . . . = 0.r 4 4 4 4 4 4 4 4 5 4+n.h.3 6 4 5 4 4 4 4 4 4 4 5 7 5++ . . . . . . . . ",
". . . . . . . . . . . |.6+5 4 4 4 4 4 4 4 4 4 4 4 4 4 4 4 4 4 4 4 4 4 s 7+w < . . . . . . . . . ",
". . . . . . . . . . . . < #+8+G 4 4 4 4 4 4 4 4 4 4 4 4 4 4 4 4 4 d n.9+q.U . . . . . . . . . . ",
". . . . . . . . . . . . . . 0+a+/.4 4 4 4 4 4 4 4 4 4 4 4 4 4 5 4.b+a.@ . . . . . . . . . . . . ",
". . . . . . . . . . . . . . . U c+d+v K 5 5 5 5 5 5 5 5 4 3 e+f+g+- [ . . . . . . . . . . . . . ",
". . . . . . . . . . . . . . . . U = h+M V.i+Y T j+Y k+I.,+&+l+'+@.. . . . . . . . . . . . . . . ",
"  . . . . . . . . . . . . . . . . . + + @ & m+q.q.m+& X + + . . . . . . . . . . . . . . . . .   ",
"  . . . . . . . . . . . . . . . . . . . . . . . . . . . . . . . . . . . . . . . . . . . . . .   ",
"    . . . . . . . . . . . . . . . . . . . . . . . . . . . . . . . . . . . . . . . . . . . .     ",
"        . . . . . . . . . . . . . . . . . . . . . . . . . . . . . . . . . . . . . . . .         "};
